<svg width="30" height="30" viewBox="0 0 30 30" fill="none" xmlns="http://www.w3.org/2000/svg">
<g clip-path="url(#clip0_1_8)">
<path d="M15 18.75C17.0711 18.75 18.75 17.0711 18.75 15C18.75 12.9289 17.0711 11.25 15 11.25C12.9289 11.25 11.25 12.9289 11.25 15C11.25 17.0711 12.9289 18.75 15 18.75Z" fill="black"/>
<path fill-rule="evenodd" clip-rule="evenodd" d="M3.90555 13.125C4.6959 8.41404 8.41404 4.6959 13.125 3.90555V0H16.875V3.90555C21.5859 4.6959 25.3041 8.41404 26.0944 13.125H30V16.875H26.0944C25.3041 21.5859 21.5859 25.3041 16.875 26.0944V30H13.125V26.0944C8.41404 25.3041 4.6959 21.5859 3.90555 16.875H0V13.125H3.90555ZM7.5 15C7.5 10.8579 10.8579 7.5 15 7.5C19.1421 7.5 22.5 10.8579 22.5 15C22.5 19.1421 19.1421 22.5 15 22.5C10.8579 22.5 7.5 19.1421 7.5 15Z" fill="black"/>
</g>
<defs>
<clipPath id="clip0_1_8">
<rect width="30" height="30" fill="white"/>
</clipPath>
</defs>
</svg>
